<svg width="468" height="473" xmlns="http://www.w3.org/2000/svg" version="1.0" style="background-color:white">

 <metadata>image/svg+xmlOpenclipartCyrillic letter E2010-09-22T20:51:09Cyrillic letter Ehttps://openclipart.org/detail/86341/cyrillic-letter-e-by-mireillemireilleCyrillicalphabetblackletter</metadata>
 <g>
  <title>Layer 1</title>
  <g stroke="null" id="svg_1" fill="#000000" transform="translate(0 473) scale(0.208 -0.208)">
   <path stroke="null" id="svg_2" d="m215.86964,1998.2412l0,-63.46696l142.65806,0l142.65806,0l0,-799.68373l0,-799.68373l-142.65806,0l-142.65806,0l0,-63.46696l0,-63.46696l847.55669,0l846.71753,0l5.03499,27.92546c2.5175,14.38584 30.20994,180.24617 62.09821,368.10838l57.06322,341.02915l-62.93738,-2.53868l-63.77654,-2.53868l-14.26581,-80.39149c-54.54573,-308.87255 -153.5672,-439.19138 -380.98093,-500.11967c-60.41988,-16.92452 -94.82565,-18.61698 -349.93182,-22.84811l-283.63778,-3.3849l0,386.72536l0,386.72536l132.58808,-3.3849c116.64394,-2.53868 136.7839,-5.07736 172.02883,-22.84811c74.68569,-36.38773 109.93062,-103.23959 120.83977,-226.78861l5.03499,-61.77451l61.25905,0l62.09821,0l0,376.57065l0,376.57065l-62.09821,0l-61.25905,0l-5.03499,-65.15942c-8.39165,-119.31789 -41.95825,-181.0924 -120.83977,-219.17258c-44.47575,-22.00188 -56.22406,-23.69433 -176.22466,-27.07924l-128.39225,-3.3849l0,352.87631l0,352.87631l283.63778,-4.23113c233.28788,-3.3849 291.19027,-5.92358 333.14852,-18.61698c115.80478,-33.00282 204.75627,-104.93205 255.10617,-206.47919c28.53161,-55.85093 55.38489,-158.24429 64.61571,-243.71314l5.87416,-53.31225l61.25905,0c43.63658,0 62.09821,3.3849 62.09821,11.00094c0.83917,5.07736 -17.62247,152.32071 -39.44076,325.79708l-39.44076,314.79614l-824.89924,0l-824.89924,0l0,-63.46696z"/>
  </g>
 </g>
</svg>